<?xml version="1.0" standalone="no"?>
<!DOCTYPE svg PUBLIC "-//W3C//DTD SVG 20010904//EN"
 "http://www.w3.org/TR/2001/REC-SVG-20010904/DTD/svg10.dtd">
<svg version="1.0" xmlns="http://www.w3.org/2000/svg"
 width="900.000000pt" height="900.000000pt" viewBox="0 0 900.000000 900.000000"
 preserveAspectRatio="xMidYMid meet">
<metadata>
Created by potrace 1.14, written by Peter Selinger 2001-2017
</metadata>
<g transform="translate(0.000000,900.000000) scale(0.100000,-0.100000)"
fill="#000000" stroke="none">
<path d="M0 4500 l0 -4500 4500 0 4500 0 0 1998 0 1997 -208 58 c-114 32 -326
91 -471 132 -146 41 -266 74 -267 72 -2 -1 -72 -178 -157 -392 -199 -501
-1401 -3464 -1422 -3505 -25 -49 -70 -72 -133 -67 -46 3 -59 9 -90 41 -34 34
-37 41 -36 94 0 51 39 152 403 1047 365 899 477 1173 526 1290 21 49 19 48
-100 -100 -255 -318 -543 -593 -755 -722 -289 -176 -619 -323 -892 -397 -258
-70 -582 -115 -829 -116 l-87 0 -4 -63 c-5 -87 -38 -147 -133 -242 -208 -209
-649 -425 -1102 -539 -203 -51 -344 -69 -488 -64 -173 6 -181 11 -270 174
l-70 128 -520 193 c-286 106 -530 196 -541 199 -19 5 -24 -2 -42 -63 -37 -120
-120 -227 -223 -286 -84 -48 -145 -62 -264 -61 -191 1 -326 52 -454 170 -173
160 -281 401 -281 623 1 249 151 426 407 478 133 27 315 -9 451 -89 122 -72
274 -245 327 -370 8 -21 16 -38 18 -38 1 0 191 -51 422 -114 231 -63 422 -113
423 -111 2 2 -114 231 -258 510 l-262 506 4 68 c5 88 42 151 158 266 215 213
556 412 907 527 70 23 130 43 132 45 3 2 -14 22 -36 46 -72 75 -178 225 -232
327 -70 134 -123 285 -165 476 -63 285 -86 494 -86 779 0 287 27 546 109 1048
l37 228 60 60 c143 146 440 376 606 469 331 187 572 274 928 335 372 63 661
77 957 46 320 -34 428 -56 662 -136 166 -57 396 -172 556 -279 85 -57 153
-113 236 -195 170 -171 263 -302 404 -577 80 -156 125 -281 184 -519 48 -190
56 -217 109 -320 38 -75 41 -79 50 -55 5 14 24 63 42 110 18 47 42 95 53 108
41 44 117 15 117 -45 0 -16 -29 -103 -66 -194 l-65 -166 38 -60 c29 -46 46
-63 72 -72 19 -5 36 -9 38 -8 1 2 42 102 91 223 75 186 92 221 116 232 36 18
77 4 95 -33 14 -29 17 -21 -156 -451 -5 -14 186 -69 197 -57 5 4 43 100 85
213 95 250 121 282 189 229 17 -13 26 -30 26 -49 0 -16 -35 -121 -79 -234 -43
-114 -76 -208 -72 -210 22 -13 165 -46 171 -39 4 4 47 103 95 218 48 116 95
219 105 229 40 41 120 10 120 -46 0 -11 -41 -117 -90 -236 -50 -118 -89 -216
-88 -217 2 -1 44 -13 95 -27 l91 -25 98 229 c56 131 105 233 115 239 48 25
109 -6 109 -56 0 -14 -39 -117 -86 -228 -47 -111 -88 -207 -91 -213 -4 -11
184 -70 193 -61 3 2 43 98 90 213 95 233 106 254 134 254 20 0 20 15 20 2110
l0 2110 -4500 0 -4500 0 0 -4500z m4390 4270 c320 -57 582 -175 754 -339 114
-109 195 -254 212 -380 6 -45 9 -50 28 -46 35 8 360 43 546 60 235 20 531 35
717 35 l153 0 50 52 50 52 23 -22 22 -23 -32 -25 c-18 -14 -33 -30 -33 -35 0
-5 35 -9 78 -10 42 0 110 -4 150 -8 l72 -7 0 27 c0 15 -7 32 -15 39 -14 12
-14 15 1 31 10 11 21 19 25 19 15 0 42 -51 48 -88 6 -37 7 -37 69 -45 61 -9
62 -8 86 20 14 17 53 45 87 63 59 31 63 32 76 15 7 -11 13 -22 13 -26 0 -4
-28 -22 -62 -41 -34 -19 -63 -39 -65 -45 -2 -6 13 -14 33 -17 20 -4 75 -19
122 -32 95 -28 104 -25 100 35 -2 30 1 36 24 42 24 6 28 4 33 -20 3 -15 2 -45
-3 -67 l-9 -40 60 -28 c54 -25 64 -27 99 -17 21 7 57 29 79 51 34 32 45 37 60
29 11 -5 19 -15 19 -22 0 -16 -54 -69 -97 -94 l-32 -19 59 -58 c64 -62 71 -63
119 -12 16 17 25 41 29 76 4 48 6 50 35 50 l30 0 -6 -50 c-9 -71 -34 -119 -81
-149 l-41 -26 14 -55 14 -55 83 0 c68 0 87 -4 111 -21 28 -21 73 -79 73 -95 0
-16 -54 -23 -59 -8 -2 8 -17 26 -32 41 -23 24 -36 28 -82 28 -80 0 -87 -4 -87
-59 0 -25 -5 -66 -11 -91 -9 -40 -8 -46 11 -60 31 -23 60 -72 60 -100 0 -14
-8 -37 -18 -52 l-18 -28 -23 21 c-16 15 -20 24 -12 32 17 17 13 42 -9 62 -23
21 -21 23 -50 -35 -12 -25 -42 -73 -66 -108 l-44 -63 46 -21 c34 -14 60 -19
95 -16 42 4 48 2 58 -18 9 -20 7 -25 -11 -35 -32 -17 -131 -5 -181 23 l-43 24
-80 -74 -79 -75 80 7 c53 4 96 14 127 29 l48 24 15 -23 c13 -21 12 -23 -11
-39 -53 -34 -109 -47 -221 -50 l-111 -3 -81 -57 -82 -57 48 -45 c46 -42 47
-45 29 -59 -23 -16 -46 -18 -46 -4 0 6 -21 24 -47 40 l-46 30 -36 -22 c-20
-12 -37 -22 -39 -23 -1 -2 6 -26 18 -54 11 -28 20 -65 20 -81 0 -27 -3 -30
-30 -30 -26 0 -30 3 -30 29 0 33 -27 104 -38 99 -79 -38 -122 -65 -122 -76 0
-16 67 -86 88 -93 10 -3 11 -11 3 -32 l-11 -28 -41 23 c-33 18 -72 63 -94 106
-1 1 -66 -29 -145 -67 l-143 -68 77 -12 c99 -14 152 -13 199 3 37 14 39 13 50
-11 14 -30 4 -38 -73 -54 -46 -10 -75 -9 -175 6 -66 11 -139 19 -163 20 -41 1
-45 3 -94 70 -95 130 -269 292 -420 393 -304 202 -654 339 -1006 392 -296 45
-451 54 -677 42 -336 -19 -710 -80 -925 -151 -348 -116 -688 -312 -1000 -576
-206 -175 -377 -388 -580 -725 -75 -124 -115 -214 -180 -408 l-48 -143 -23 30
c-20 27 -29 31 -70 31 l-46 0 -6 -46 c-3 -32 -13 -54 -33 -75 -33 -35 -40 -36
-55 -8 -9 17 -7 25 10 43 23 25 29 84 9 90 -7 3 -43 7 -80 10 l-68 5 0 -28 c0
-16 8 -39 19 -52 17 -21 17 -25 3 -46 -14 -23 -15 -23 -34 -6 -30 27 -48 68
-48 108 0 30 -3 35 -22 35 -13 0 -39 3 -59 6 -33 6 -38 3 -59 -30 -24 -40 -84
-76 -125 -76 -21 0 -25 5 -25 30 0 23 4 30 20 30 28 0 64 19 78 41 10 16 9 19
-11 24 -12 2 -53 11 -90 20 -38 8 -71 15 -75 15 -4 0 -7 -22 -7 -50 0 -59 -23
-92 -49 -70 -12 9 -14 23 -10 51 12 71 2 85 -75 108 -38 12 -73 21 -79 21 -14
0 -33 -52 -37 -101 -2 -39 -6 -44 -29 -47 -25 -3 -26 -1 -26 48 0 28 7 67 15
87 8 19 15 37 15 38 0 6 -113 55 -117 51 -10 -10 20 -47 47 -59 27 -11 28 -14
17 -40 l-12 -27 -35 18 c-49 27 -72 63 -72 110 1 35 -4 43 -37 66 -20 14 -42
26 -47 26 -13 0 -69 -69 -85 -104 -12 -26 -25 -31 -53 -20 -14 5 -14 10 -1 41
8 19 33 57 56 84 33 40 39 52 29 64 -8 10 -18 11 -36 4 -36 -13 -83 -11 -142
6 -56 17 -59 21 -39 49 11 16 18 17 53 7 38 -11 114 -15 114 -7 0 2 -11 26
-24 53 -13 26 -27 63 -31 81 -7 33 -8 34 -43 27 -50 -9 -91 -31 -132 -71 -34
-32 -37 -33 -59 -18 l-23 16 39 40 c46 48 95 74 163 89 27 6 50 15 50 21 0 5
-8 7 -17 4 -44 -12 -126 -17 -178 -11 -52 7 -56 9 -53 32 3 25 4 25 108 27 58
1 115 7 126 14 24 13 38 61 23 79 -15 18 -75 43 -122 51 -37 7 -42 11 -45 36
l-4 29 51 -6 c28 -3 74 -18 103 -32 28 -14 52 -24 53 -23 43 67 48 85 46 166
-2 82 12 152 30 152 6 0 19 -4 29 -10 17 -9 17 -13 3 -59 -9 -31 -11 -56 -6
-66 7 -12 20 -3 64 47 63 73 98 149 106 230 5 46 10 59 26 64 11 4 23 1 29 -7
9 -14 4 -103 -8 -133 -4 -9 32 12 78 46 l84 63 -18 24 c-19 25 -24 86 -9 110
8 12 15 13 33 4 20 -9 24 -17 20 -46 -3 -27 0 -38 16 -46 26 -14 32 -6 32 43
0 42 29 118 50 131 6 4 20 -1 30 -10 18 -16 18 -18 -1 -48 -10 -18 -19 -42
-19 -54 0 -21 3 -20 62 16 35 21 98 57 142 81 58 32 82 51 91 74 15 34 53 86
63 86 4 0 13 -9 20 -21 10 -16 10 -24 1 -35 -18 -21 -6 -18 82 26 165 84 487
219 769 324 l125 47 -3 141 c-4 165 14 295 59 432 156 471 611 802 1234 900
152 24 154 24 400 21 185 -2 255 -7 355 -25z"/>
<path d="M6009 5415 c-125 -46 -201 -151 -202 -279 -2 -155 124 -285 284 -294
56 -4 76 0 128 24 110 49 172 140 179 262 4 63 1 79 -22 126 -33 67 -94 132
-149 157 -50 22 -163 25 -218 4z m181 -244 c0 -27 -20 -42 -42 -30 -23 12 -23
45 -1 58 21 11 43 -3 43 -28z m-85 -73 c15 -14 28 -38 31 -59 8 -49 -33 -99
-81 -99 -52 0 -95 42 -95 91 0 79 86 118 145 67z"/>
<path d="M3773 4909 c-164 -52 -247 -207 -199 -371 31 -108 142 -196 260 -205
218 -17 389 221 296 412 -71 146 -211 211 -357 164z m163 -223 c15 -12 17 -18
8 -33 -15 -24 -58 -24 -62 0 -4 18 14 47 27 47 4 0 16 -6 27 -14z m-76 -94
c15 -12 24 -33 27 -63 5 -42 3 -48 -27 -72 -36 -31 -59 -33 -100 -12 -86 44
-57 165 38 165 23 0 49 -7 62 -18z"/>
<path d="M8950 4397 c-25 -62 -45 -116 -45 -122 0 -9 85 -38 92 -31 2 2 2 62
1 134 l-3 131 -45 -112z"/>
<path d="M7510 4408 c0 -2 9 -31 20 -65 27 -89 51 -231 59 -352 l6 -105 87
224 c48 123 86 226 84 228 -12 11 -256 78 -256 70z"/>
<path d="M5995 3856 c-146 -75 -294 -135 -480 -193 -242 -75 -485 -117 -830
-143 -82 -6 -153 -15 -158 -19 -14 -14 -26 -210 -16 -277 22 -157 83 -277 191
-379 147 -138 289 -183 547 -172 75 3 161 11 191 17 260 56 522 172 696 311
73 58 174 173 174 199 0 9 -24 37 -53 62 -93 81 -161 242 -161 388 -1 75 3 94
33 162 28 64 31 81 21 93 -7 8 -18 15 -24 14 -6 0 -65 -29 -131 -63z m-836
-876 c69 -32 117 -76 171 -158 l51 -77 -28 -6 c-15 -4 -80 -7 -145 -8 -127 -1
-242 16 -314 48 -51 23 -144 88 -144 101 0 13 125 81 185 102 69 24 168 23
224 -2z"/>
</g>
</svg>
